<svg width="154" height="24" viewBox="0 0 154 24" fill="none" xmlns="http://www.w3.org/2000/svg">
<path d="M1.6 5.024C1.68533 4.61867 1.824 4.23467 2.016 3.872C2.208 3.488 2.432 3.168 2.688 2.912C2.96533 2.63467 3.264 2.42133 3.584 2.272C3.904 2.10133 4.224 2.016 4.544 2.016H7.264L8.128 2.976V2.016H11.296V8.384H8.128V5.856H5.44C5.26933 6.00533 5.13067 6.16533 5.024 6.336C4.91733 6.50667 4.864 6.77333 4.864 7.136V18.112C4.864 18.4747 4.93867 18.72 5.088 18.848C5.23733 18.976 5.39733 19.0827 5.568 19.168H7.424C7.59467 19.0827 7.75467 18.976 7.904 18.848C8.05333 18.72 8.128 18.4747 8.128 18.112V16.352H11.328V19.968C11.1787 20.7147 10.8907 21.312 10.464 21.76C10.0373 22.1867 9.46133 22.5067 8.736 22.72H4.192C3.488 22.5067 2.912 22.1867 2.464 21.76C2.03733 21.312 1.74933 20.7147 1.6 19.968V5.024ZM1.024 20.064C1.19467 20.9387 1.536 21.632 2.048 22.144C2.56 22.656 3.24267 23.04 4.096 23.296H8.832C9.68533 23.04 10.368 22.656 10.88 22.144C11.392 21.632 11.7333 20.9387 11.904 20.064V15.776H7.552V18.112C7.552 18.2613 7.52 18.368 7.456 18.432C7.41333 18.496 7.37067 18.5493 7.328 18.592H5.664C5.6 18.5493 5.54667 18.496 5.504 18.432C5.46133 18.368 5.44 18.2613 5.44 18.112V7.136C5.44 6.96533 5.46133 6.82667 5.504 6.72C5.568 6.592 5.62133 6.496 5.664 6.432H7.552V8.96H11.84V1.44H4.544C4.16 1.44 3.776 1.536 3.392 1.728C3.008 1.89867 2.656 2.144 2.336 2.464C2.016 2.76267 1.73867 3.12533 1.504 3.552C1.26933 3.97867 1.10933 4.43733 1.024 4.928V20.064ZM0.32 5.024C0.426667 4.40533 0.618667 3.84 0.896 3.328C1.17333 2.79467 1.504 2.336 1.888 1.952C2.272 1.568 2.688 1.26933 3.136 1.056C3.60533 0.842665 4.07467 0.735998 4.544 0.735998H12.576V9.664H6.848V7.136H6.176V17.888H6.848V15.072H12.608V20.032C12.416 21.12 12.0107 21.984 11.392 22.624C10.7733 23.2427 9.952 23.7013 8.928 24H4.032C3.008 23.7013 2.18667 23.2427 1.568 22.624C0.949333 21.984 0.533333 21.12 0.32 20.032V5.024ZM17.7695 22.72C17.0655 22.5067 16.4895 22.1867 16.0415 21.76C15.6148 21.312 15.3268 20.7147 15.1775 19.968V4.768C15.3268 4.02133 15.6148 3.43467 16.0415 3.008C16.4895 2.56 17.0655 2.22933 17.7695 2.016H22.7615C23.4655 2.22933 24.0308 2.56 24.4575 3.008C24.9055 3.43467 25.2042 4.02133 25.3535 4.768V19.968C25.2042 20.7147 24.9055 21.312 24.4575 21.76C24.0308 22.1867 23.4655 22.5067 22.7615 22.72H17.7695ZM21.3855 19.008C21.5562 18.944 21.7055 18.848 21.8335 18.72C21.9828 18.5707 22.0575 18.3147 22.0575 17.952V6.784C22.0575 6.4 21.9828 6.144 21.8335 6.016C21.7055 5.888 21.5562 5.792 21.3855 5.728H19.1455C18.9748 5.792 18.8148 5.888 18.6655 6.016C18.5162 6.144 18.4415 6.4 18.4415 6.784V17.952C18.4415 18.3147 18.5162 18.5707 18.6655 18.72C18.8148 18.848 18.9748 18.944 19.1455 19.008H21.3855ZM17.6095 24C16.5855 23.7013 15.7642 23.2427 15.1455 22.624C14.5268 21.984 14.1108 21.12 13.8975 20.032V4.704C14.1108 3.616 14.5268 2.76267 15.1455 2.144C15.7642 1.504 16.5855 1.03466 17.6095 0.735998H22.9215C23.9455 1.03466 24.7668 1.504 25.3855 2.144C26.0042 2.76267 26.4202 3.616 26.6335 4.704V20.032C26.4202 21.12 26.0042 21.984 25.3855 22.624C24.7668 23.2427 23.9455 23.7013 22.9215 24H17.6095ZM19.7535 17.728H20.7775V7.008H19.7535V17.728ZM22.8255 23.296C23.7002 23.04 24.3935 22.656 24.9055 22.144C25.4175 21.632 25.7482 20.9387 25.8975 20.064V4.672C25.7482 3.79733 25.4175 3.104 24.9055 2.592C24.3935 2.08 23.7002 1.696 22.8255 1.44H17.6735C16.8202 1.696 16.1375 2.08 15.6255 2.592C15.1135 3.104 14.7722 3.79733 14.6015 4.672V20.064C14.7722 20.9387 15.1135 21.632 15.6255 22.144C16.1375 22.656 16.8202 23.04 17.6735 23.296H22.8255ZM19.2415 18.432C19.0922 18.368 19.0175 18.208 19.0175 17.952V6.816C19.0175 6.688 19.0388 6.58133 19.0815 6.496C19.1455 6.41067 19.1988 6.34667 19.2415 6.304H21.2575C21.4068 6.41067 21.4815 6.58133 21.4815 6.816V17.952C21.4815 18.208 21.4068 18.368 21.2575 18.432H19.2415ZM39.8165 16.352V22.72H29.1925V18.88H30.4085V5.856H29.1925V2.016H34.8245V5.856H33.6405V18.88H36.6805V16.352H39.8165ZM41.0965 15.072V24H27.9125V17.6H29.1285V7.136H27.9125V0.735998H36.1365V7.136H34.9205V17.6H35.4005V15.072H41.0965ZM36.1045 15.776V18.304H34.2165V6.432H35.4005V1.44H28.6165V6.432H29.8325V18.304H28.6165V23.296H40.3925V15.776H36.1045ZM54.269 16.352V22.72H43.645V18.88H44.861V5.856H43.645V2.016H49.277V5.856H48.093V18.88H51.133V16.352H54.269ZM55.549 15.072V24H42.365V17.6H43.581V7.136H42.365V0.735998H50.589V7.136H49.373V17.6H49.853V15.072H55.549ZM50.557 15.776V18.304H48.669V6.432H49.853V1.44H43.069V6.432H44.285V18.304H43.069V23.296H54.845V15.776H50.557ZM63.8255 9.952H64.3055V7.136H63.8255V9.952ZM68.6895 2.016V8.384H65.5855V5.856H62.5455V11.232H65.5855V10.176H67.5695V14.56H65.5855V13.504H62.5455V18.88H65.5855V16.352H68.6895V22.72H58.0975V18.88H59.3135V5.856H58.0975V2.016H68.6895ZM57.5215 1.44V6.432H58.7375V18.304H57.5215V23.296H69.2655V15.776H65.0095V18.304H63.1215V14.08H65.0095V15.136H68.1455V9.6H65.0095V10.656H63.1215V6.432H65.0095V8.96H69.2655V1.44H57.5215ZM69.9695 0.735998V9.664H68.8495V15.072H69.9695V24H56.8175V17.6H58.0335V7.136H56.8175V0.735998H69.9695ZM63.8255 17.6H64.3055V14.784H63.8255V17.6ZM82.726 8.384H79.43V5.856H76.39C76.2193 6.00533 76.0807 6.16533 75.974 6.336C75.8673 6.50667 75.814 6.77333 75.814 7.136V17.6C75.814 17.9627 75.8673 18.2293 75.974 18.4C76.0807 18.5707 76.2193 18.7307 76.39 18.88H79.398V14.048H77.67V11.424H82.726V22.72H79.334V21.76L78.438 22.72H75.494C75.174 22.72 74.854 22.6453 74.534 22.496C74.214 22.3253 73.9153 22.112 73.638 21.856C73.382 21.5787 73.158 21.2587 72.966 20.896C72.774 20.5333 72.6353 20.1387 72.55 19.712V5.024C72.6353 4.61867 72.774 4.23467 72.966 3.872C73.158 3.488 73.382 3.168 73.638 2.912C73.9153 2.63467 74.214 2.42133 74.534 2.272C74.854 2.10133 75.174 2.016 75.494 2.016H78.534L79.43 2.976V2.016H82.726V8.384ZM84.006 9.664H78.118V7.136H77.126V10.144H84.006V24H75.494C75.0247 24 74.5553 23.8933 74.086 23.68C73.638 23.4453 73.222 23.136 72.838 22.752C72.454 22.368 72.1233 21.92 71.846 21.408C71.5687 20.896 71.3767 20.352 71.27 19.776V4.96C71.3767 4.384 71.5687 3.84 71.846 3.328C72.1233 2.816 72.454 2.368 72.838 1.984C73.222 1.6 73.638 1.30133 74.086 1.088C74.5553 0.853332 75.0247 0.735998 75.494 0.735998H84.006V9.664ZM77.126 15.328V17.6H78.118V15.328H77.126ZM83.302 1.44H75.494C75.11 1.44 74.726 1.536 74.342 1.728C73.958 1.89867 73.606 2.144 73.286 2.464C72.966 2.76267 72.6887 3.12533 72.454 3.552C72.2193 3.97867 72.0593 4.43733 71.974 4.928V19.808C72.0593 20.2987 72.2193 20.7573 72.454 21.184C72.6887 21.6107 72.966 21.984 73.286 22.304C73.606 22.6027 73.958 22.848 74.342 23.04C74.726 23.2107 75.11 23.296 75.494 23.296H83.302V10.848H77.126V14.624H78.822V18.304H76.614C76.5713 18.24 76.518 18.1547 76.454 18.048C76.4113 17.92 76.39 17.7707 76.39 17.6V7.136C76.39 6.96533 76.4113 6.82667 76.454 6.72C76.518 6.592 76.5713 6.496 76.614 6.432H78.854V8.96H83.302V1.44ZM92.293 9.952H92.773V7.136H92.293V9.952ZM97.157 2.016V8.384H94.053V5.856H91.013V11.232H94.053V10.176H96.037V14.56H94.053V13.504H91.013V18.88H94.053V16.352H97.157V22.72H86.565V18.88H87.781V5.856H86.565V2.016H97.157ZM85.989 1.44V6.432H87.205V18.304H85.989V23.296H97.733V15.776H93.477V18.304H91.589V14.08H93.477V15.136H96.613V9.6H93.477V10.656H91.589V6.432H93.477V8.96H97.733V1.44H85.989ZM98.437 0.735998V9.664H97.317V15.072H98.437V24H85.285V17.6H86.501V7.136H85.285V0.735998H98.437ZM92.293 17.6H92.773V14.784H92.293V17.6ZM109.594 11.488C109.722 11.488 109.914 11.6587 110.17 12C110.426 12.32 110.692 12.8 110.97 13.44C111.247 14.0587 111.514 14.8267 111.77 15.744C112.026 16.6613 112.218 17.7067 112.346 18.88H113.562V22.72H108.09V18.88H109.146C109.06 18.0267 108.911 17.248 108.698 16.544C108.506 15.8187 108.271 15.1573 107.994 14.56C107.887 14.2827 107.759 14.08 107.61 13.952C107.46 13.8027 107.226 13.728 106.906 13.728H105.466V18.88H106.522V22.72H101.018V18.88H102.234V5.856H101.018V2.016H106.49V5.856H105.466V11.456H106.714L109.306 5.856H108.154V2.016H113.562V5.856H112.378L109.594 11.488ZM112.762 6.432H114.138V1.44H107.578V6.432H108.378L106.362 10.752H106.01V6.432H107.034V1.44H100.442V6.432H101.658V18.304H100.442V23.296H107.066V18.304H106.01V14.304H106.906C107.076 14.304 107.194 14.3467 107.258 14.432C107.343 14.496 107.418 14.6133 107.482 14.784C107.951 15.7867 108.282 16.96 108.474 18.304H107.514V23.296H114.138V18.304H112.89C112.762 17.3653 112.591 16.5013 112.378 15.712C112.186 14.9227 111.962 14.2293 111.706 13.632C111.471 13.0133 111.236 12.5227 111.002 12.16C110.767 11.776 110.554 11.5307 110.362 11.424L112.762 6.432ZM111.226 11.264C111.695 11.8613 112.122 12.6933 112.506 13.76C112.89 14.8267 113.21 16.1067 113.466 17.6H114.842V24H99.7375V17.6H100.954V7.136H99.7375V0.735998H114.842V7.136H113.178L111.226 11.264ZM107.642 17.6C107.62 17.472 107.588 17.3013 107.546 17.088C107.503 16.8533 107.45 16.6187 107.386 16.384C107.322 16.1493 107.247 15.9253 107.162 15.712C107.098 15.4987 107.034 15.328 106.97 15.2H106.714V17.6H107.642ZM107.258 7.136H106.682V8.608L107.258 7.136ZM123.232 5.856H121.952V18.88H123.232V22.72H117.408V18.88H118.688V5.856H117.408V2.016H123.232V5.856ZM124.512 7.136H123.232V17.6H124.512V24H116.128V17.6H117.408V7.136H116.128V0.735998H124.512V7.136ZM123.808 1.44H116.832V6.432H118.112V18.304H116.832V23.296H123.808V18.304H122.528V6.432H123.808V1.44ZM134.823 7.744C134.823 7.31733 134.78 6.944 134.695 6.624C134.631 6.28267 134.375 6.02667 133.927 5.856H131.527V18.88H133.927C134.375 18.7307 134.631 18.5067 134.695 18.208C134.78 17.888 134.823 17.5147 134.823 17.088V7.744ZM127.079 22.72V18.88H128.295V5.856H127.079V2.016H135.463C136.188 2.22933 136.764 2.56 137.191 3.008C137.639 3.43467 137.927 4.02133 138.055 4.768V19.968C137.927 20.7147 137.639 21.312 137.191 21.76C136.764 22.1867 136.188 22.5067 135.463 22.72H127.079ZM133.511 7.136H132.807V17.6H133.511V7.136ZM125.799 24V17.6H127.015V7.136H125.799V0.735998H135.655C136.679 1.03466 137.5 1.504 138.119 2.144C138.737 2.76267 139.143 3.616 139.335 4.704V20.032C139.143 21.12 138.737 21.984 138.119 22.624C137.5 23.2427 136.679 23.7013 135.655 24H125.799ZM134.247 17.184C134.247 17.4613 134.225 17.696 134.183 17.888C134.14 18.0587 134.001 18.1973 133.767 18.304H132.103V6.432H133.767C134.001 6.53867 134.14 6.688 134.183 6.88C134.225 7.05067 134.247 7.27467 134.247 7.552V17.184ZM135.559 23.296C136.433 23.04 137.116 22.656 137.607 22.144C138.119 21.632 138.46 20.9387 138.631 20.064V4.672C138.46 3.79733 138.119 3.104 137.607 2.592C137.116 2.08 136.433 1.696 135.559 1.44H126.503V6.432H127.719V18.304H126.503V23.296H135.559ZM144.594 22.72C143.869 22.5067 143.293 22.1867 142.866 21.76C142.44 21.312 142.152 20.7147 142.002 19.968V16.352H145.202V18.112C145.202 18.4747 145.277 18.72 145.426 18.848C145.576 18.976 145.736 19.0827 145.906 19.168H147.826C147.997 19.0827 148.157 18.976 148.306 18.848C148.456 18.72 148.53 18.4747 148.53 18.112V16.352C148.53 15.9893 148.498 15.7333 148.434 15.584C148.37 15.4347 148.189 15.264 147.89 15.072L143.218 12.192C142.877 11.9573 142.568 11.6053 142.29 11.136C142.034 10.6667 141.906 10.1227 141.906 9.504V5.024C141.992 4.61867 142.13 4.23467 142.322 3.872C142.536 3.488 142.781 3.168 143.058 2.912C143.336 2.63467 143.634 2.42133 143.954 2.272C144.274 2.10133 144.594 2.016 144.914 2.016H147.73L148.626 2.976V2.016H151.922V8.384H148.626V5.856H146.034C145.864 6.00533 145.725 6.16533 145.618 6.336C145.512 6.50667 145.458 6.77333 145.458 7.136V9.088C145.458 9.32267 145.501 9.52533 145.586 9.696C145.672 9.84533 145.864 10.016 146.162 10.208L150.802 13.056C151.208 13.2907 151.506 13.632 151.698 14.08C151.912 14.528 152.018 14.944 152.018 15.328V19.808C151.933 20.2347 151.794 20.6293 151.602 20.992C151.41 21.3333 151.176 21.632 150.898 21.888C150.642 22.144 150.354 22.3467 150.034 22.496C149.714 22.6453 149.394 22.72 149.074 22.72H144.594ZM149.074 23.296C149.458 23.296 149.832 23.2107 150.194 23.04C150.578 22.8693 150.93 22.6347 151.25 22.336C151.57 22.0373 151.848 21.6853 152.082 21.28C152.317 20.8533 152.488 20.3947 152.594 19.904V15.328C152.594 14.8587 152.488 14.368 152.274 13.856C152.061 13.344 151.677 12.9173 151.122 12.576L146.482 9.728C146.184 9.51467 146.034 9.30133 146.034 9.088V7.136C146.034 6.96533 146.056 6.82667 146.098 6.72C146.162 6.592 146.216 6.496 146.258 6.432H148.05V8.96H152.498V1.44H144.914C144.53 1.44 144.146 1.536 143.762 1.728C143.378 1.89867 143.016 2.144 142.674 2.464C142.354 2.76267 142.066 3.12533 141.81 3.552C141.576 3.97867 141.416 4.43733 141.33 4.928V9.504C141.33 10.2293 141.49 10.88 141.81 11.456C142.13 12.0107 142.493 12.416 142.898 12.672L147.538 15.52C147.73 15.648 147.848 15.7653 147.89 15.872C147.933 15.9573 147.954 16.1173 147.954 16.352V18.112C147.954 18.2613 147.922 18.368 147.858 18.432C147.816 18.496 147.762 18.5493 147.698 18.592H145.97C145.928 18.5493 145.885 18.496 145.842 18.432C145.8 18.368 145.778 18.2613 145.778 18.112V15.776H141.426V20.064C141.597 20.9387 141.938 21.632 142.45 22.144C142.962 22.656 143.645 23.04 144.498 23.296H149.074ZM146.738 9.088L147.346 9.472V7.136H146.738V9.088ZM146.482 15.712V17.888H147.25V16.384C147.25 16.256 147.218 16.1707 147.154 16.128L146.482 15.712ZM144.402 24C143.378 23.7013 142.557 23.2427 141.938 22.624C141.32 21.984 140.914 21.12 140.722 20.032V15.072H145.266L142.514 13.248C142.024 12.9493 141.586 12.4693 141.202 11.808C140.818 11.1253 140.626 10.3573 140.626 9.504V4.96C140.733 4.384 140.925 3.84 141.202 3.328C141.501 2.816 141.842 2.368 142.226 1.984C142.632 1.6 143.069 1.30133 143.538 1.088C144.008 0.853332 144.466 0.735998 144.914 0.735998H153.202V9.664H147.666L151.506 12C152.125 12.384 152.573 12.8427 152.85 13.376C153.149 13.9093 153.298 14.5173 153.298 15.2V19.872C153.192 20.448 152.989 20.992 152.69 21.504C152.413 22.016 152.082 22.4533 151.698 22.816C151.314 23.1787 150.898 23.4667 150.45 23.68C150.002 23.8933 149.544 24 149.074 24H144.402Z" fill="#81212D"/>
</svg>
