<svg width="25" height="20" viewBox="0 0 25 20" fill="none" xmlns="http://www.w3.org/2000/svg">
<path d="M21.1636 1.72459C19.5701 0.993459 17.8614 0.454797 16.0749 0.146283C16.0424 0.140329 16.0099 0.155209 15.9931 0.184969C15.7733 0.575818 15.5299 1.08571 15.3595 1.48649C13.4379 1.19881 11.5262 1.19881 9.64408 1.48649C9.47359 1.0768 9.22134 0.575818 9.0006 0.184969C8.98384 0.156202 8.95134 0.141322 8.9188 0.146283C7.13324 0.453811 5.42454 0.992473 3.83014 1.72459C3.81634 1.73054 3.80451 1.74047 3.79666 1.75335C0.555616 6.5954 -0.33224 11.3184 0.103313 15.9829C0.105283 16.0057 0.118094 16.0275 0.135831 16.0414C2.27418 17.6118 4.34553 18.5651 6.37842 19.197C6.41095 19.2069 6.44542 19.195 6.46613 19.1683C6.94701 18.5116 7.37567 17.8191 7.7432 17.091C7.76489 17.0483 7.74419 16.9977 7.69986 16.9809C7.01993 16.7229 6.3725 16.4085 5.74972 16.0513C5.70046 16.0226 5.69651 15.9521 5.74183 15.9184C5.87289 15.8202 6.00398 15.718 6.12912 15.6148C6.15176 15.596 6.18331 15.592 6.20993 15.6039C10.3013 17.4719 14.7308 17.4719 18.7739 15.6039C18.8005 15.591 18.8321 15.595 18.8557 15.6138C18.9809 15.717 19.1119 15.8202 19.244 15.9184C19.2893 15.9521 19.2863 16.0226 19.2371 16.0513C18.6143 16.4154 17.9669 16.7229 17.2859 16.9799C17.2416 16.9967 17.2219 17.0483 17.2436 17.091C17.619 17.8181 18.0477 18.5105 18.5197 19.1673C18.5394 19.195 18.5749 19.2069 18.6074 19.197C20.6501 18.5651 22.7215 17.6118 24.8598 16.0414C24.8786 16.0275 24.8904 16.0067 24.8924 15.9839C25.4136 10.5912 24.0193 5.90695 21.1961 1.75434C21.1892 1.74047 21.1774 1.73054 21.1636 1.72459ZM8.35419 13.1427C7.12239 13.1427 6.10743 12.0118 6.10743 10.623C6.10743 9.23416 7.10271 8.10328 8.35419 8.10328C9.61549 8.10328 10.6206 9.24409 10.6009 10.623C10.6009 12.0118 9.60563 13.1427 8.35419 13.1427ZM16.6612 13.1427C15.4294 13.1427 14.4145 12.0118 14.4145 10.623C14.4145 9.23416 15.4097 8.10328 16.6612 8.10328C17.9225 8.10328 18.9276 9.24409 18.908 10.623C18.908 12.0118 17.9225 13.1427 16.6612 13.1427Z" fill="black"/>
</svg>
