<svg width="24" height="19" viewBox="0 0 24 19" fill="none" xmlns="http://www.w3.org/2000/svg">
<path d="M20.865 0H23.315L13.368 11.3672C13.1105 11.6491 13.1032 12.0986 13.3533 12.3881L19.092 19.0622H16.5316L11.2271 12.8757L10.9622 12.5405C10.7121 12.251 10.7194 11.8015 10.9769 11.5196L20.865 0Z" fill="black"/>
<path d="M15.3397 12.3958C15.1779 12.2053 15.119 11.9463 15.1779 11.7101C15.222 11.5806 15.3177 11.4358 15.4059 11.3368L16.0681 10.6053L23.3739 19.0622H21.049C21.049 19.0622 16.767 14.0643 15.3397 12.3958Z" fill="black"/>
<path d="M2.55296 19.0622H0L7.82808 9.99583C8.07823 9.70631 8.07823 9.27205 7.82808 8.99014L0.0588578 0H2.51617L10.3295 9.06635C10.5282 9.333 10.565 9.72156 10.3516 9.97297C8.3063 12.3424 2.55296 19.0622 2.55296 19.0622Z" fill="black"/>
<path d="M6.83484 0H4.47318L11.7127 8.38826C11.7127 8.38826 11.7348 8.37303 12.544 7.42068C12.7648 7.16164 12.8089 6.84166 12.5661 6.59786C11.0432 5.03601 6.83484 0 6.83484 0Z" fill="black"/>
<path d="M13.8831 5.85121L18.9081 0H16.5317L13.9052 3.06275L13.1474 3.94652C12.8899 4.22842 12.8825 4.6703 13.1327 4.96744C13.324 5.18838 13.8831 5.85121 13.8831 5.85121Z" fill="black"/>
<path d="M9.52031 13.2111L4.49533 19.0623H6.87171L9.49823 15.9995L10.256 15.1158C10.5135 14.8339 10.5209 14.392 10.2707 14.0948C10.0794 13.8739 9.52031 13.2111 9.52031 13.2111Z" fill="black"/>
</svg>
